# Blender 5.1.2
# www.blender.org
o Cube
v 0.850000 0.850000 -1.000000
v 0.850000 1.000000 -0.850000
v 1.000000 0.850000 -0.850000
v 0.850000 0.907403 -0.988582
v 0.850000 0.956066 -0.956066
v 0.907403 0.850000 -0.988582
v 0.908841 0.908841 -0.974802
v 0.905856 0.948438 -0.948438
v 0.936603 0.936603 -0.936603
v 0.907403 0.988582 -0.850000
v 0.956066 0.956066 -0.850000
v 0.850000 0.988582 -0.907403
v 0.908841 0.974802 -0.908841
v 0.948438 0.948438 -0.905856
v 0.988582 0.850000 -0.907403
v 0.956066 0.850000 -0.956066
v 0.988582 0.907403 -0.850000
v 0.974802 0.908841 -0.908841
v 0.948438 0.905856 -0.948438
v 0.850000 -1.000000 -0.850000
v 0.850000 -0.850000 -1.000000
v 1.000000 -0.850000 -0.850000
v 0.850000 -0.988582 -0.907403
v 0.850000 -0.956066 -0.956066
v 0.907403 -0.988582 -0.850000
v 0.908841 -0.974802 -0.908841
v 0.905856 -0.948438 -0.948438
v 0.936603 -0.936603 -0.936603
v 0.907403 -0.850000 -0.988582
v 0.956066 -0.850000 -0.956066
v 0.850000 -0.907403 -0.988582
v 0.908841 -0.908841 -0.974802
v 0.948438 -0.905856 -0.948438
v 0.988582 -0.907403 -0.850000
v 0.956066 -0.956066 -0.850000
v 0.988582 -0.850000 -0.907403
v 0.974802 -0.908841 -0.908841
v 0.948438 -0.948438 -0.905856
v 1.000000 0.850000 0.850000
v 0.850000 1.000000 0.850000
v 0.850000 0.850000 1.000000
v 0.988582 0.907403 0.850000
v 0.956066 0.956066 0.850000
v 0.988582 0.850000 0.907403
v 0.974802 0.908841 0.908841
v 0.948438 0.948438 0.905856
v 0.936603 0.936603 0.936603
v 0.850000 0.988582 0.907403
v 0.850000 0.956066 0.956066
v 0.907403 0.988582 0.850000
v 0.908841 0.974802 0.908841
v 0.905856 0.948438 0.948438
v 0.907403 0.850000 0.988582
v 0.956066 0.850000 0.956066
v 0.850000 0.907403 0.988582
v 0.908841 0.908841 0.974802
v 0.948438 0.905856 0.948438
v 1.000000 -0.850000 0.850000
v 0.850000 -0.850000 1.000000
v 0.850000 -1.000000 0.850000
v 0.988582 -0.850000 0.907403
v 0.956066 -0.850000 0.956066
v 0.988582 -0.907403 0.850000
v 0.974802 -0.908841 0.908841
v 0.948438 -0.905856 0.948438
v 0.936603 -0.936603 0.936603
v 0.850000 -0.907403 0.988582
v 0.850000 -0.956066 0.956066
v 0.907403 -0.850000 0.988582
v 0.908841 -0.908841 0.974802
v 0.905856 -0.948438 0.948438
v 0.907403 -0.988582 0.850000
v 0.956066 -0.956066 0.850000
v 0.850000 -0.988582 0.907403
v 0.908841 -0.974802 0.908841
v 0.948438 -0.948438 0.905856
v -0.850000 0.850000 -1.000000
v -1.000000 0.850000 -0.850000
v -0.850000 1.000000 -0.850000
v -0.907403 0.850000 -0.988582
v -0.956066 0.850000 -0.956066
v -0.850000 0.907403 -0.988582
v -0.908841 0.908841 -0.974802
v -0.948438 0.905856 -0.948438
v -0.936603 0.936603 -0.936603
v -0.988582 0.907403 -0.850000
v -0.956066 0.956066 -0.850000
v -0.988582 0.850000 -0.907403
v -0.974802 0.908841 -0.908841
v -0.948438 0.948438 -0.905856
v -0.850000 0.988582 -0.907403
v -0.850000 0.956066 -0.956066
v -0.907403 0.988582 -0.850000
v -0.908841 0.974802 -0.908841
v -0.905856 0.948438 -0.948438
v -1.000000 -0.850000 -0.850000
v -0.850000 -0.850000 -1.000000
v -0.850000 -1.000000 -0.850000
v -0.988582 -0.850000 -0.907403
v -0.956066 -0.850000 -0.956066
v -0.988582 -0.907403 -0.850000
v -0.974802 -0.908841 -0.908841
v -0.948438 -0.905856 -0.948438
v -0.936603 -0.936603 -0.936603
v -0.850000 -0.907403 -0.988582
v -0.850000 -0.956066 -0.956066
v -0.907403 -0.850000 -0.988582
v -0.908841 -0.908841 -0.974802
v -0.905856 -0.948438 -0.948438
v -0.907403 -0.988582 -0.850000
v -0.956066 -0.956066 -0.850000
v -0.850000 -0.988582 -0.907403
v -0.908841 -0.974802 -0.908841
v -0.948438 -0.948438 -0.905856
v -1.000000 0.850000 0.850000
v -0.850000 0.850000 1.000000
v -0.850000 1.000000 0.850000
v -0.988582 0.850000 0.907403
v -0.956066 0.850000 0.956066
v -0.988582 0.907403 0.850000
v -0.974802 0.908841 0.908841
v -0.948438 0.905856 0.948438
v -0.936603 0.936603 0.936603
v -0.850000 0.907403 0.988582
v -0.850000 0.956066 0.956066
v -0.907403 0.850000 0.988582
v -0.908841 0.908841 0.974802
v -0.905856 0.948438 0.948438
v -0.907403 0.988582 0.850000
v -0.956066 0.956066 0.850000
v -0.850000 0.988582 0.907403
v -0.908841 0.974802 0.908841
v -0.948438 0.948438 0.905856
v -0.850000 -1.000000 0.850000
v -0.850000 -0.850000 1.000000
v -1.000000 -0.850000 0.850000
v -0.850000 -0.988582 0.907403
v -0.850000 -0.956066 0.956066
v -0.907403 -0.988582 0.850000
v -0.908841 -0.974802 0.908841
v -0.905856 -0.948438 0.948438
v -0.936603 -0.936603 0.936603
v -0.907403 -0.850000 0.988582
v -0.956066 -0.850000 0.956066
v -0.850000 -0.907403 0.988582
v -0.908841 -0.908841 0.974802
v -0.948438 -0.905856 0.948438
v -0.988582 -0.907403 0.850000
v -0.956066 -0.956066 0.850000
v -0.988582 -0.850000 0.907403
v -0.974802 -0.908841 0.908841
v -0.948438 -0.948438 0.905856
vn 0.1915 0.1915 -0.9626
vn 0.1782 0.5467 -0.8182
vn 0.5467 0.1782 -0.8182
vn 0.5127 0.4731 -0.7164
vn 0.1915 0.9626 -0.1915
vn 0.5467 0.8182 -0.1782
vn 0.1782 0.8182 -0.5467
vn 0.4731 0.7164 -0.5127
vn 0.9626 0.1915 -0.1915
vn 0.8182 0.1782 -0.5467
vn 0.8182 0.5467 -0.1782
vn 0.7164 0.5127 -0.4731
vn 0.1915 -0.9626 -0.1915
vn 0.1782 -0.8182 -0.5467
vn 0.5467 -0.8182 -0.1782
vn 0.5127 -0.7164 -0.4731
vn 0.1915 -0.1915 -0.9626
vn 0.5467 -0.1782 -0.8182
vn 0.1782 -0.5467 -0.8182
vn 0.4731 -0.5127 -0.7164
vn 0.9626 -0.1915 -0.1915
vn 0.8182 -0.5467 -0.1782
vn 0.8182 -0.1782 -0.5467
vn 0.7164 -0.4731 -0.5127
vn 0.9626 0.1915 0.1915
vn 0.8182 0.5467 0.1782
vn 0.8182 0.1782 0.5467
vn 0.7164 0.4731 0.5127
vn 0.1915 0.9626 0.1915
vn 0.1782 0.8182 0.5467
vn 0.5467 0.8182 0.1782
vn 0.5127 0.7164 0.4731
vn 0.1915 0.1915 0.9626
vn 0.5467 0.1782 0.8182
vn 0.1782 0.5467 0.8182
vn 0.4731 0.5127 0.7164
vn 0.9626 -0.1915 0.1915
vn 0.8182 -0.1782 0.5467
vn 0.8182 -0.5467 0.1782
vn 0.7164 -0.5127 0.4731
vn 0.1915 -0.1915 0.9626
vn 0.1782 -0.5467 0.8182
vn 0.5467 -0.1782 0.8182
vn 0.5127 -0.4731 0.7164
vn 0.1915 -0.9626 0.1915
vn 0.5467 -0.8182 0.1782
vn 0.1782 -0.8182 0.5467
vn 0.4731 -0.7164 0.5127
vn -0.1915 0.1915 -0.9626
vn -0.5467 0.1782 -0.8182
vn -0.1782 0.5467 -0.8182
vn -0.4731 0.5127 -0.7164
vn -0.9626 0.1915 -0.1915
vn -0.8182 0.5467 -0.1782
vn -0.8182 0.1782 -0.5467
vn -0.7164 0.4731 -0.5127
vn -0.1915 0.9626 -0.1915
vn -0.1782 0.8182 -0.5467
vn -0.5467 0.8182 -0.1782
vn -0.5127 0.7164 -0.4731
vn -0.9626 -0.1915 -0.1915
vn -0.8182 -0.1782 -0.5467
vn -0.8182 -0.5467 -0.1782
vn -0.7164 -0.5127 -0.4731
vn -0.1915 -0.1915 -0.9626
vn -0.1782 -0.5467 -0.8182
vn -0.5467 -0.1782 -0.8182
vn -0.5127 -0.4731 -0.7164
vn -0.1915 -0.9626 -0.1915
vn -0.5467 -0.8182 -0.1782
vn -0.1782 -0.8182 -0.5467
vn -0.4731 -0.7164 -0.5127
vn -0.9626 0.1915 0.1915
vn -0.8182 0.1782 0.5467
vn -0.8182 0.5467 0.1782
vn -0.7164 0.5127 0.4731
vn -0.1915 0.1915 0.9626
vn -0.1782 0.5467 0.8182
vn -0.5467 0.1782 0.8182
vn -0.5127 0.4731 0.7164
vn -0.1915 0.9626 0.1915
vn -0.5467 0.8182 0.1782
vn -0.1782 0.8182 0.5467
vn -0.4731 0.7164 0.5127
vn -0.1915 -0.9626 0.1915
vn -0.1782 -0.8182 0.5467
vn -0.5467 -0.8182 0.1782
vn -0.5127 -0.7164 0.4731
vn -0.1915 -0.1915 0.9626
vn -0.5467 -0.1782 0.8182
vn -0.1782 -0.5467 0.8182
vn -0.4731 -0.5127 0.7164
vn -0.9626 -0.1915 0.1915
vn -0.8182 -0.5467 0.1782
vn -0.8182 -0.1782 0.5467
vn -0.7164 -0.4731 0.5127
vn -0.1951 -0.9808 -0.0000
vn -0.5556 -0.8315 -0.0000
vn -0.8315 -0.5556 -0.0000
vn -0.9808 -0.1951 -0.0000
vn -0.0000 -0.9808 -0.1951
vn -0.0000 -0.8315 -0.5556
vn -0.0000 -0.5556 -0.8315
vn -0.0000 -0.1951 -0.9808
vn 0.9808 -0.0000 -0.1951
vn 0.8315 -0.0000 -0.5556
vn 0.5556 -0.0000 -0.8315
vn 0.1951 -0.0000 -0.9808
vn -0.1951 -0.0000 0.9808
vn -0.5556 -0.0000 0.8315
vn -0.8315 -0.0000 0.5556
vn -0.9808 -0.0000 0.1951
vn 0.1951 -0.0000 0.9808
vn 0.5556 -0.0000 0.8315
vn 0.8315 -0.0000 0.5556
vn 0.9808 -0.0000 0.1951
vn -0.1951 -0.0000 -0.9808
vn -0.5556 -0.0000 -0.8315
vn -0.8315 -0.0000 -0.5556
vn -0.9808 -0.0000 -0.1951
vn -0.0000 0.9808 0.1951
vn -0.0000 0.8315 0.5556
vn -0.0000 0.5556 0.8315
vn -0.0000 0.1951 0.9808
vn 0.1951 0.9808 -0.0000
vn 0.5556 0.8315 -0.0000
vn 0.8315 0.5556 -0.0000
vn 0.9808 0.1951 -0.0000
vn -0.0000 -0.9808 0.1951
vn -0.0000 -0.8315 0.5556
vn -0.0000 -0.5556 0.8315
vn -0.0000 -0.1951 0.9808
vn -0.1951 0.9808 -0.0000
vn -0.5556 0.8315 -0.0000
vn -0.8315 0.5556 -0.0000
vn -0.9808 0.1951 -0.0000
vn -0.0000 0.9808 -0.1951
vn -0.0000 0.8315 -0.5556
vn -0.0000 0.5556 -0.8315
vn -0.0000 0.1951 -0.9808
vn 0.1951 -0.9808 -0.0000
vn 0.5556 -0.8315 -0.0000
vn 0.8315 -0.5556 -0.0000
vn 0.9808 -0.1951 -0.0000
vn -0.0000 -0.0000 -1.0000
vn 1.0000 -0.0000 -0.0000
vn -0.0000 1.0000 -0.0000
vn -0.0000 -1.0000 -0.0000
vn -0.0000 -0.0000 1.0000
vn -1.0000 -0.0000 -0.0000
vn 0.2175 0.2175 -0.9515
vn 0.1865 0.5542 -0.8112
vn 0.5542 0.1865 -0.8112
vn 0.4731 0.5127 -0.7164
vn 0.2175 0.9515 -0.2175
vn 0.5542 0.8112 -0.1865
vn 0.1865 0.8112 -0.5542
vn 0.5127 0.7164 -0.4731
vn 0.9515 0.2175 -0.2175
vn 0.8112 0.1865 -0.5542
vn 0.8112 0.5542 -0.1865
vn 0.7164 0.4731 -0.5127
vn 0.2175 -0.9515 -0.2175
vn 0.1865 -0.8112 -0.5542
vn 0.5542 -0.8112 -0.1865
vn 0.4731 -0.7164 -0.5127
vn 0.2175 -0.2175 -0.9515
vn 0.5542 -0.1865 -0.8112
vn 0.1865 -0.5542 -0.8112
vn 0.5127 -0.4731 -0.7164
vn 0.9515 -0.2175 -0.2175
vn 0.8112 -0.5542 -0.1865
vn 0.8112 -0.1865 -0.5542
vn 0.7164 -0.5127 -0.4731
vn 0.9515 0.2175 0.2175
vn 0.8112 0.5542 0.1865
vn 0.8112 0.1865 0.5542
vn 0.7164 0.5127 0.4731
vn 0.2175 0.9515 0.2175
vn 0.1865 0.8112 0.5542
vn 0.5542 0.8112 0.1865
vn 0.4731 0.7164 0.5127
vn 0.2175 0.2175 0.9515
vn 0.5542 0.1865 0.8112
vn 0.1865 0.5542 0.8112
vn 0.5127 0.4731 0.7164
vn 0.9515 -0.2175 0.2175
vn 0.8112 -0.1865 0.5542
vn 0.8112 -0.5542 0.1865
vn 0.7164 -0.4731 0.5127
vn 0.2175 -0.2175 0.9515
vn 0.1865 -0.5542 0.8112
vn 0.5542 -0.1865 0.8112
vn 0.4731 -0.5127 0.7164
vn 0.2175 -0.9515 0.2175
vn 0.5542 -0.8112 0.1865
vn 0.1865 -0.8112 0.5542
vn 0.5127 -0.7164 0.4731
vn -0.2175 0.2175 -0.9515
vn -0.5542 0.1865 -0.8112
vn -0.1865 0.5542 -0.8112
vn -0.5127 0.4731 -0.7164
vn -0.9515 0.2175 -0.2175
vn -0.8112 0.5542 -0.1865
vn -0.8112 0.1865 -0.5542
vn -0.7164 0.5127 -0.4731
vn -0.2175 0.9515 -0.2175
vn -0.1865 0.8112 -0.5542
vn -0.5542 0.8112 -0.1865
vn -0.4731 0.7164 -0.5127
vn -0.9515 -0.2175 -0.2175
vn -0.8112 -0.1865 -0.5542
vn -0.8112 -0.5542 -0.1865
vn -0.7164 -0.4731 -0.5127
vn -0.2175 -0.2175 -0.9515
vn -0.1865 -0.5542 -0.8112
vn -0.5542 -0.1865 -0.8112
vn -0.4731 -0.5127 -0.7164
vn -0.2175 -0.9515 -0.2175
vn -0.5542 -0.8112 -0.1865
vn -0.1865 -0.8112 -0.5542
vn -0.5127 -0.7164 -0.4731
vn -0.9515 0.2175 0.2175
vn -0.8112 0.1865 0.5542
vn -0.8112 0.5542 0.1865
vn -0.7164 0.4731 0.5127
vn -0.2175 0.2175 0.9515
vn -0.1865 0.5542 0.8112
vn -0.5542 0.1865 0.8112
vn -0.4731 0.5127 0.7164
vn -0.2175 0.9515 0.2175
vn -0.5542 0.8112 0.1865
vn -0.1865 0.8112 0.5542
vn -0.5127 0.7164 0.4731
vn -0.2175 -0.9515 0.2175
vn -0.1865 -0.8112 0.5542
vn -0.5542 -0.8112 0.1865
vn -0.4731 -0.7164 0.5127
vn -0.2175 -0.2175 0.9515
vn -0.5542 -0.1865 0.8112
vn -0.1865 -0.5542 0.8112
vn -0.5127 -0.4731 0.7164
vn -0.9515 -0.2175 0.2175
vn -0.8112 -0.5542 0.1865
vn -0.8112 -0.1865 0.5542
vn -0.7164 -0.5127 0.4731
s 0
f 4//1 6//1 1//1
f 5//2 7//2 4//2
f 7//3 16//3 6//3
f 7//4 9//4 19//4
f 10//5 12//5 2//5
f 11//6 13//6 10//6
f 13//7 5//7 12//7
f 13//8 9//8 8//8
f 15//9 17//9 3//9
f 16//10 18//10 15//10
f 18//11 11//11 17//11
f 18//12 9//12 14//12
f 23//13 25//13 20//13
f 24//14 26//14 23//14
f 26//15 35//15 25//15
f 26//16 28//16 38//16
f 29//17 31//17 21//17
f 30//18 32//18 29//18
f 32//19 24//19 31//19
f 32//20 28//20 27//20
f 34//21 36//21 22//21
f 35//22 37//22 34//22
f 37//23 30//23 36//23
f 37//24 28//24 33//24
f 42//25 44//25 39//25
f 43//26 45//26 42//26
f 45//27 54//27 44//27
f 45//28 47//28 57//28
f 48//29 50//29 40//29
f 49//30 51//30 48//30
f 51//31 43//31 50//31
f 51//32 47//32 46//32
f 53//33 55//33 41//33
f 54//34 56//34 53//34
f 56//35 49//35 55//35
f 56//36 47//36 52//36
f 61//37 63//37 58//37
f 62//38 64//38 61//38
f 64//39 73//39 63//39
f 64//40 66//40 76//40
f 67//41 69//41 59//41
f 68//42 70//42 67//42
f 70//43 62//43 69//43
f 70//44 66//44 65//44
f 72//45 74//45 60//45
f 73//46 75//46 72//46
f 75//47 68//47 74//47
f 75//48 66//48 71//48
f 80//49 82//49 77//49
f 81//50 83//50 80//50
f 83//51 92//51 82//51
f 83//52 85//52 95//52
f 86//53 88//53 78//53
f 87//54 89//54 86//54
f 89//55 81//55 88//55
f 89//56 85//56 84//56
f 91//57 93//57 79//57
f 92//58 94//58 91//58
f 94//59 87//59 93//59
f 94//60 85//60 90//60
f 99//61 101//61 96//61
f 100//62 102//62 99//62
f 102//63 111//63 101//63
f 102//64 104//64 114//64
f 105//65 107//65 97//65
f 106//66 108//66 105//66
f 108//67 100//67 107//67
f 108//68 104//68 103//68
f 110//69 112//69 98//69
f 111//70 113//70 110//70
f 113//71 106//71 112//71
f 113//72 104//72 109//72
f 118//73 120//73 115//73
f 119//74 121//74 118//74
f 121//75 130//75 120//75
f 121//76 123//76 133//76
f 124//77 126//77 116//77
f 125//78 127//78 124//78
f 127//79 119//79 126//79
f 127//80 123//80 122//80
f 129//81 131//81 117//81
f 130//82 132//82 129//82
f 132//83 125//83 131//83
f 132//84 123//84 128//84
f 137//85 139//85 134//85
f 138//86 140//86 137//86
f 140//87 149//87 139//87
f 140//88 142//88 152//88
f 143//89 145//89 135//89
f 144//90 146//90 143//90
f 146//91 138//91 145//91
f 146//92 142//92 141//92
f 148//93 150//93 136//93
f 149//94 151//94 148//94
f 151//95 144//95 150//95
f 151//96 142//96 147//96
f 134//97 110//97 98//97
f 139//98 111//98 110//98
f 149//99 101//99 111//99
f 148//100 96//100 101//100
f 98//101 23//101 20//101
f 112//102 24//102 23//102
f 106//103 31//103 24//103
f 105//104 21//104 31//104
f 22//105 15//105 3//105
f 36//106 16//106 15//106
f 30//107 6//107 16//107
f 29//108 1//108 6//108
f 116//109 143//109 135//109
f 126//110 144//110 143//110
f 119//111 150//111 144//111
f 118//112 136//112 150//112
f 59//113 53//113 41//113
f 69//114 54//114 53//114
f 62//115 44//115 54//115
f 61//116 39//116 44//116
f 97//117 80//117 77//117
f 107//118 81//118 80//118
f 100//119 88//119 81//119
f 99//120 78//120 88//120
f 117//121 48//121 40//121
f 131//122 49//122 48//122
f 125//123 55//123 49//123
f 124//124 41//124 55//124
f 40//125 10//125 2//125
f 50//126 11//126 10//126
f 43//127 17//127 11//127
f 42//128 3//128 17//128
f 60//129 137//129 134//129
f 74//130 138//130 137//130
f 68//131 145//131 138//131
f 67//132 135//132 145//132
f 79//133 129//133 117//133
f 93//134 130//134 129//134
f 87//135 120//135 130//135
f 86//136 115//136 120//136
f 2//137 91//137 79//137
f 12//138 92//138 91//138
f 5//139 82//139 92//139
f 4//140 77//140 82//140
f 20//141 72//141 60//141
f 25//142 73//142 72//142
f 35//143 63//143 73//143
f 34//144 58//144 63//144
f 77//145 21//145 97//145
f 3//146 58//146 22//146
f 79//147 40//147 2//147
f 20//148 134//148 98//148
f 41//149 135//149 59//149
f 115//150 96//150 136//150
f 4//151 7//151 6//151
f 5//152 8//152 7//152
f 7//153 19//153 16//153
f 7//154 8//154 9//154
f 10//155 13//155 12//155
f 11//156 14//156 13//156
f 13//157 8//157 5//157
f 13//158 14//158 9//158
f 15//159 18//159 17//159
f 16//160 19//160 18//160
f 18//161 14//161 11//161
f 18//162 19//162 9//162
f 23//163 26//163 25//163
f 24//164 27//164 26//164
f 26//165 38//165 35//165
f 26//166 27//166 28//166
f 29//167 32//167 31//167
f 30//168 33//168 32//168
f 32//169 27//169 24//169
f 32//170 33//170 28//170
f 34//171 37//171 36//171
f 35//172 38//172 37//172
f 37//173 33//173 30//173
f 37//174 38//174 28//174
f 42//175 45//175 44//175
f 43//176 46//176 45//176
f 45//177 57//177 54//177
f 45//178 46//178 47//178
f 48//179 51//179 50//179
f 49//180 52//180 51//180
f 51//181 46//181 43//181
f 51//182 52//182 47//182
f 53//183 56//183 55//183
f 54//184 57//184 56//184
f 56//185 52//185 49//185
f 56//186 57//186 47//186
f 61//187 64//187 63//187
f 62//188 65//188 64//188
f 64//189 76//189 73//189
f 64//190 65//190 66//190
f 67//191 70//191 69//191
f 68//192 71//192 70//192
f 70//193 65//193 62//193
f 70//194 71//194 66//194
f 72//195 75//195 74//195
f 73//196 76//196 75//196
f 75//197 71//197 68//197
f 75//198 76//198 66//198
f 80//199 83//199 82//199
f 81//200 84//200 83//200
f 83//201 95//201 92//201
f 83//202 84//202 85//202
f 86//203 89//203 88//203
f 87//204 90//204 89//204
f 89//205 84//205 81//205
f 89//206 90//206 85//206
f 91//207 94//207 93//207
f 92//208 95//208 94//208
f 94//209 90//209 87//209
f 94//210 95//210 85//210
f 99//211 102//211 101//211
f 100//212 103//212 102//212
f 102//213 114//213 111//213
f 102//214 103//214 104//214
f 105//215 108//215 107//215
f 106//216 109//216 108//216
f 108//217 103//217 100//217
f 108//218 109//218 104//218
f 110//219 113//219 112//219
f 111//220 114//220 113//220
f 113//221 109//221 106//221
f 113//222 114//222 104//222
f 118//223 121//223 120//223
f 119//224 122//224 121//224
f 121//225 133//225 130//225
f 121//226 122//226 123//226
f 124//227 127//227 126//227
f 125//228 128//228 127//228
f 127//229 122//229 119//229
f 127//230 128//230 123//230
f 129//231 132//231 131//231
f 130//232 133//232 132//232
f 132//233 128//233 125//233
f 132//234 133//234 123//234
f 137//235 140//235 139//235
f 138//236 141//236 140//236
f 140//237 152//237 149//237
f 140//238 141//238 142//238
f 143//239 146//239 145//239
f 144//240 147//240 146//240
f 146//241 141//241 138//241
f 146//242 147//242 142//242
f 148//243 151//243 150//243
f 149//244 152//244 151//244
f 151//245 147//245 144//245
f 151//246 152//246 142//246
f 134//97 139//97 110//97
f 139//98 149//98 111//98
f 149//99 148//99 101//99
f 148//100 136//100 96//100
f 98//101 112//101 23//101
f 112//102 106//102 24//102
f 106//103 105//103 31//103
f 105//104 97//104 21//104
f 22//105 36//105 15//105
f 36//106 30//106 16//106
f 30//107 29//107 6//107
f 29//108 21//108 1//108
f 116//109 126//109 143//109
f 126//110 119//110 144//110
f 119//111 118//111 150//111
f 118//112 115//112 136//112
f 59//113 69//113 53//113
f 69//114 62//114 54//114
f 62//115 61//115 44//115
f 61//116 58//116 39//116
f 97//117 107//117 80//117
f 107//118 100//118 81//118
f 100//119 99//119 88//119
f 99//120 96//120 78//120
f 117//121 131//121 48//121
f 131//122 125//122 49//122
f 125//123 124//123 55//123
f 124//124 116//124 41//124
f 40//125 50//125 10//125
f 50//126 43//126 11//126
f 43//127 42//127 17//127
f 42//128 39//128 3//128
f 60//129 74//129 137//129
f 74//130 68//130 138//130
f 68//131 67//131 145//131
f 67//132 59//132 135//132
f 79//133 93//133 129//133
f 93//134 87//134 130//134
f 87//135 86//135 120//135
f 86//136 78//136 115//136
f 2//137 12//137 91//137
f 12//138 5//138 92//138
f 5//139 4//139 82//139
f 4//140 1//140 77//140
f 20//141 25//141 72//141
f 25//142 35//142 73//142
f 35//143 34//143 63//143
f 34//144 22//144 58//144
f 77//145 1//145 21//145
f 3//146 39//146 58//146
f 79//147 117//147 40//147
f 20//148 60//148 134//148
f 41//149 116//149 135//149
f 115//150 78//150 96//150
